<svg width="30" height="24" viewBox="0 0 30 24" fill="none" xmlns="http://www.w3.org/2000/svg">
<g clip-path="url(#clip0_2951_8714)">
<path d="M26.7713 23.9896H26.7398C25.4123 23.9896 24.3262 22.8982 24.3262 21.5602C24.3262 20.2222 25.4071 19.1309 26.7398 19.1309H26.7713C28.0988 19.1309 29.1849 20.2222 29.1849 21.5602C29.1797 22.9035 28.0988 23.9896 26.7713 23.9896Z" fill="#1C4D73"/>
<path d="M12.3 24C5.68352 24 0.300049 18.6165 0.300049 12C0.300049 5.38347 5.68352 0 12.3 0C18.9166 0 24.3 5.38347 24.3 12C24.3 18.6165 18.9166 24 12.3 24ZM12.3 4.55444C8.19686 4.55444 4.85449 7.89681 4.85449 12C4.85449 16.1032 8.19686 19.4456 12.3 19.4456C16.4032 19.4456 19.7456 16.1032 19.7456 12C19.7456 7.89681 16.4032 4.55444 12.3 4.55444Z" fill="black"/>
</g>
<defs>
<clipPath id="clip0_2951_8714">
<rect width="29.4" height="24" fill="white" transform="translate(0.300049)"/>
</clipPath>
</defs>
</svg>
