<svg width="30" height="24" viewBox="0 0 30 24" fill="none" xmlns="http://www.w3.org/2000/svg">
<g clip-path="url(#clip0_2951_8726)">
<path d="M26.7337 19.2773H26.7663C27.3904 19.2796 27.988 19.5296 28.4278 19.9724C28.8676 20.4152 29.1134 21.0146 29.1113 21.6387C29.1134 22.2627 28.8676 22.8621 28.4278 23.3049C27.988 23.7477 27.3904 23.9977 26.7663 24H26.7337C26.1096 23.9977 25.512 23.7477 25.0722 23.3049C24.6324 22.8621 24.3866 22.2627 24.3887 21.6387C24.3866 21.0146 24.6324 20.4152 25.0722 19.9724C25.512 19.5296 26.1096 19.2796 26.7337 19.2773Z" fill="#1C4D73"/>
<path d="M12.3778 23.9958C5.76188 23.9958 0.379883 18.6138 0.379883 11.9979C0.379883 5.382 5.76188 0 12.3778 0C18.9937 0 24.3757 5.382 24.3757 11.9979C24.3757 18.6138 18.9937 23.9958 12.3778 23.9958ZM12.3778 4.51443C8.25128 4.51443 4.89326 7.87139 4.89326 11.9989C4.89326 16.1265 8.25022 19.4835 12.3778 19.4835C16.5053 19.4835 19.8623 16.1265 19.8623 11.9989C19.8623 7.87139 16.5043 4.51443 12.3778 4.51443Z" fill="white"/>
</g>
<defs>
<clipPath id="clip0_2951_8726">
<rect width="29.4" height="24" fill="white" transform="translate(0.300049)"/>
</clipPath>
</defs>
</svg>
