<svg width="70" height="16" viewBox="0 0 70 16" fill="none" xmlns="http://www.w3.org/2000/svg">
<g clip-path="url(#clip0_2951_8711)">
<path d="M20.7845 15.6684H17.7576V4.64576H20.674V6.37539C21.3988 5.05855 22.1926 4.51953 23.4075 4.51953C23.7492 4.51953 23.9391 4.54341 24.1151 4.60823L24.1461 4.61846V7.23168H24.0357C23.0589 7.13275 22.2479 7.34767 21.6853 7.85258C21.0882 8.38477 20.7845 9.21036 20.7845 10.2952V15.6684Z" fill="black"/>
<path d="M31.6452 15.9896C30.1956 15.9896 29.0601 15.4233 28.3491 14.3521V15.6724H25.4326V0.180664H28.4595V5.95636C29.1774 4.88855 30.2197 4.34612 31.5589 4.34612C34.3925 4.34612 36.3701 6.74101 36.3701 10.1662C36.3701 11.8992 35.918 13.3662 35.0621 14.4101C34.2165 15.4438 33.0361 15.9896 31.6452 15.9896ZM30.8893 6.78194C28.8254 6.78194 28.3905 8.65828 28.3905 10.231C28.3905 12.2267 29.3879 13.4651 30.9963 13.4651C32.4597 13.4651 33.2984 12.2608 33.2984 10.1662C33.3018 8.04762 32.401 6.78194 30.8893 6.78194Z" fill="black"/>
<path d="M40.7705 4.64551H37.7437V15.6715H40.7705V4.64551Z" fill="black"/>
<path d="M46.6068 15.6924C45.6922 15.6924 43.5627 15.4331 43.5627 13.0246V6.65527H42.0337V4.64589H43.5627V1.23438H46.524V4.64248H48.4223V6.65186H46.524V12.4037C46.524 13.103 46.8691 13.4442 47.5767 13.4442C47.9391 13.4442 48.4326 13.4237 48.4361 13.4237L48.4844 13.4203V15.6412L48.4395 15.6446C48.4361 15.648 47.7596 15.6924 46.6068 15.6924Z" fill="black"/>
<path d="M53.4199 15.9249C51.0109 15.9249 49.5129 14.6251 49.5129 12.5339C49.5129 9.94112 51.7771 9.27928 53.9929 8.97225C55.8187 8.71638 56.6263 8.5731 56.6263 7.78163C56.6263 6.98334 55.9671 6.5296 54.8178 6.5296C53.4786 6.5296 52.8125 7.0038 52.7297 8.02043L52.7262 8.06137H50.0272L50.0307 8.01361C50.0755 6.98333 50.5 6.09975 51.249 5.4618C52.1015 4.73515 53.3095 4.37012 54.8419 4.37012C58.0069 4.37012 59.5462 5.70402 59.5462 8.44346V14.0042C59.5462 14.8128 59.667 15.2972 59.9155 15.4814L59.9328 15.4951V15.6725H57.0405L57.0267 15.6554C56.8817 15.4746 56.7644 15.0823 56.6815 14.4852C55.8014 15.7509 54.5934 15.9249 53.4199 15.9249ZM56.6953 10.2038C56.2121 10.4597 55.5288 10.62 54.8626 10.7735L54.7039 10.8111C53.1783 11.1522 52.4535 11.4865 52.4535 12.4725C52.4535 13.3731 53.0023 13.8098 54.1309 13.8098C55.8118 13.8098 56.6919 12.7829 56.6919 11.7663V10.2038H56.6953Z" fill="black"/>
<path d="M64.4851 15.6689H61.4583V0.180664H64.4851V15.6689Z" fill="black"/>
<path d="M67.8987 15.6688H67.878C66.9979 15.6688 66.28 14.9558 66.28 14.079C66.28 13.2023 66.9979 12.4893 67.878 12.4893H67.8987C68.7789 12.4893 69.4968 13.2023 69.4968 14.079C69.4968 14.9558 68.7789 15.6688 67.8987 15.6688Z" fill="red"/>
<path d="M8.38694 15.8389C3.99674 15.8389 0.427979 12.3114 0.427979 7.97535C0.427979 3.63932 3.99674 0.108398 8.38694 0.108398C12.7771 0.108398 16.3459 3.63591 16.3459 7.97535C16.3459 12.3148 12.7737 15.8389 8.38694 15.8389ZM8.38694 3.09347C5.66377 3.09347 3.44797 5.28367 3.44797 7.97535C3.44797 10.667 5.66377 12.8572 8.38694 12.8572C11.1101 12.8572 13.3259 10.667 13.3259 7.97535C13.3259 5.28367 11.1101 3.09347 8.38694 3.09347Z" fill="black"/>
<path d="M39.2657 3.18246H39.245C38.3649 3.18246 37.647 2.46946 37.647 1.5927C37.647 0.715936 38.3649 0.00292969 39.245 0.00292969H39.2657C40.1458 0.00292969 40.8637 0.715936 40.8637 1.5927C40.8671 2.46946 40.1492 3.18246 39.2657 3.18246Z" fill="black"/>
</g>
<defs>
<clipPath id="clip0_2951_8711">
<rect width="69.2" height="16" fill="red" transform="translate(0.399902)"/>
</clipPath>
</defs>
</svg>
