<svg width="70" height="16" viewBox="0 0 70 16" fill="none" xmlns="http://www.w3.org/2000/svg">
<g clip-path="url(#clip0_2951_8723)">
<path d="M20.8327 6.42784H20.8984C21.5619 5.18378 22.3117 4.54102 23.5973 4.54102C23.9187 4.54102 24.1122 4.56175 24.2815 4.62741V7.17773H24.2158C22.3083 6.98421 20.9364 7.99329 20.9364 10.3052V15.6615H18.0232V4.67233H20.8292V6.42784H20.8327Z" fill="white"/>
<path d="M28.5008 14.2899H28.4594V15.6618H25.6533V0.183594H28.5665V5.99957H28.6322C29.2335 5.0769 30.1734 4.37193 31.6974 4.37193C34.462 4.37193 36.4317 6.74947 36.4317 10.1775C36.4317 13.7335 34.5449 15.9832 31.7838 15.9832C30.2356 15.9832 29.1436 15.3197 28.5008 14.2899ZM33.4736 10.1775C33.4736 8.14212 32.6581 6.72873 31.0304 6.72873C29.1885 6.72873 28.5008 8.20778 28.5008 10.2432C28.5008 12.2579 29.5065 13.5434 31.1376 13.5434C32.6373 13.54 33.4736 12.2994 33.4736 10.1775Z" fill="white"/>
<path d="M40.7999 4.67188H37.8867V15.6645H40.7999V4.67188Z" fill="white"/>
<path d="M42.1509 4.67222H43.6714V1.24414H46.5224V4.67222H48.4092V6.60051H46.519V12.4269C46.519 13.2424 46.9682 13.5189 47.611 13.5189C47.9738 13.5189 48.468 13.4981 48.468 13.4981V15.6407C48.468 15.6407 47.8045 15.6822 46.6468 15.6822C45.2334 15.6822 43.668 15.1258 43.668 13.0454V6.60051H42.1475V4.67222H42.1509Z" fill="white"/>
<path d="M56.6961 14.4418H56.6546C56.0983 15.2781 55.3035 15.9209 53.4201 15.9209C51.1704 15.9209 49.5842 14.7425 49.5842 12.5585C49.5842 10.136 51.554 9.36536 53.9972 9.02325C55.8184 8.76752 56.6546 8.61547 56.6546 7.77919C56.6546 6.98783 56.0326 6.47292 54.8127 6.47292C53.4408 6.47292 52.7773 6.96709 52.6909 8.01418H50.0991C50.1855 6.08588 51.6197 4.39258 54.8335 4.39258C58.1337 4.39258 59.4607 5.87163 59.4607 8.44269V14.034C59.4607 14.8703 59.5885 15.361 59.8477 15.5546V15.6617H57.0417C56.8689 15.4474 56.7618 14.9325 56.6961 14.4418ZM56.7168 11.7844V10.136C56.2019 10.4366 55.4106 10.606 54.6814 10.7788C53.1609 11.1209 52.411 11.463 52.411 12.4928C52.411 13.5226 53.0952 13.8854 54.1251 13.8854C55.7976 13.8854 56.7168 12.8556 56.7168 11.7844Z" fill="white"/>
<path d="M61.4512 0.183594H64.3643V15.6618H61.4512V0.183594Z" fill="white"/>
<path d="M67.782 12.582H67.8027C68.6563 12.582 69.344 13.2766 69.344 14.1337C69.344 14.9907 68.6528 15.6853 67.8027 15.6853H67.782C66.9284 15.6853 66.2407 14.9907 66.2407 14.1337C66.2407 13.2766 66.9319 12.582 67.782 12.582Z" fill="#FC5252"/>
<path d="M8.66503 15.8379C4.3281 15.8379 0.799805 12.3096 0.799805 7.97265C0.799805 3.63571 4.3281 0.107422 8.66503 0.107422C13.002 0.107422 16.5303 3.63571 16.5303 7.97265C16.5303 12.3096 13.002 15.8379 8.66503 15.8379ZM8.66503 3.0206C5.93501 3.0206 3.71298 5.24263 3.71298 7.97265C3.71298 10.7027 5.93501 12.9247 8.66503 12.9247C11.3951 12.9247 13.6171 10.7027 13.6171 7.97265C13.6171 5.24263 11.3951 3.0206 8.66503 3.0206Z" fill="white"/>
<path d="M39.331 0H39.3518C40.2053 0 40.893 0.6946 40.893 1.55162C40.893 2.40864 40.2019 3.10324 39.3518 3.10324H39.331C38.4775 3.10324 37.7898 2.40864 37.7898 1.55162C37.7898 0.6946 38.4809 0 39.331 0Z" fill="white"/>
</g>
<defs>
<clipPath id="clip0_2951_8723">
<rect width="69.2" height="16" fill="white" transform="translate(0.399902)"/>
</clipPath>
</defs>
</svg>
